<?xml version="1.0" encoding="UTF-8" standalone="no"?>
<!-- Created with Inkscape (http://www.inkscape.org/) -->

<svg
   width="255.24805"
   height="254.28125"
   viewBox="0 0 255.24805 254.28125"
   version="1.1"
   id="svg1"
   xml:space="preserve"
   xmlns="http://www.w3.org/2000/svg"
   xmlns:svg="http://www.w3.org/2000/svg"><defs
     id="defs1" /><g
     id="layer1"
     transform="translate(-110.12305,-1334.7031)"><g
       id="g43"
       transform="matrix(1.0104141,0,0,1.0104141,-62.771779,1225.7019)"
       clip-path="none"
       mask="none"><path
         id="path84"
         style="display:inline;fill:#e8d2ff;stroke-width:1.25443"
         d="m 391.13087,89.65232 c 0,0 -0.0514,0.55376 -0.16044,1.579257 h 0.32088 c -0.10902,-1.025497 -0.16044,-1.579257 -0.16044,-1.579257 z m -0.79639,7.020636 c -0.15516,1.228394 -0.33547,2.59536 -0.54124,4.082484 h 2.67526 c -0.20577,-1.487124 -0.38608,-2.85409 -0.54124,-4.082484 z m -1.3357,9.521934 c -0.20081,1.30692 -0.41631,2.67038 -0.64949,4.08248 h 5.56316 c -0.23318,-1.4121 -0.44868,-2.77556 -0.64949,-4.08248 z m -1.59086,9.52193 c -0.2411,1.33269 -0.49528,2.69529 -0.76353,4.08248 h 8.97296 c -0.26825,-1.38719 -0.52243,-2.74979 -0.76353,-4.08248 z m -1.8634,9.52193 c -0.28436,1.34674 -0.58127,2.70901 -0.89111,4.08249 h 12.95493 c -0.30985,-1.37348 -0.60676,-2.73575 -0.89111,-4.08249 z m -2.17462,9.52387 c -0.33471,1.35628 -0.68341,2.71779 -1.04382,4.08055 h 17.60958 c -0.36041,-1.36276 -0.70911,-2.72427 -1.04382,-4.08055 z m -61.18508,9.52193 c 0.74686,0.92954 1.84626,2.31738 3.20104,4.08055 h 2.60761 c -2.26674,-1.71815 -4.05926,-3.12948 -5.24808,-4.08055 z m 58.63159,0 c -0.39763,1.36561 -0.80804,2.72714 -1.23325,4.08055 h 23.09542 c -0.42521,-1.35341 -0.83562,-2.71494 -1.23325,-4.08055 z m 78.69994,0 c -1.18892,0.95107 -2.98117,2.3624 -5.24808,4.08055 h 2.60761 c 1.35491,-1.76317 2.4541,-3.15101 3.20104,-4.08055 z m -130.04994,9.52193 c 0.93429,1.27645 1.91697,2.64167 2.93429,4.08248 h 8.91497 c -2.08063,-1.39878 -4.05846,-2.77113 -5.9053,-4.08248 z m 48.31133,0 c -0.4822,1.37703 -0.98037,2.73937 -1.4942,4.08248 h 29.69466 c -0.51382,-1.34311 -1.01199,-2.70545 -1.4942,-4.08248 z m 69.07363,0 c -1.84695,1.31135 -3.8265,2.6837 -5.90723,4.08248 h 8.91497 c 1.01741,-1.44081 2.00185,-2.80603 2.93622,-4.08248 z m -110.70453,9.52193 c 0.88767,1.32246 1.78555,2.68576 2.68493,4.08248 h 17.8802 c -2.36059,-1.32135 -4.6851,-2.69321 -6.94718,-4.08248 z m 37.91762,0 c -0.60738,1.39289 -1.23382,2.75567 -1.8808,4.08248 h 37.89442 c -0.64698,-1.32681 -1.27342,-2.68959 -1.8808,-4.08248 z m 58.43056,0 c -2.26215,1.38927 -4.58655,2.76113 -6.94718,4.08248 h 17.8802 c 0.89944,-1.39672 1.79719,-2.76002 2.68493,-4.08248 z m -90.26311,9.52193 c 0.8123,1.34263 1.61523,2.70534 2.40464,4.08249 h 12.63405 c 1.17408,-1.2608 2.30966,-2.6257 3.40981,-4.08249 z m 27.05999,0 c -0.82894,1.42515 -1.6876,2.78913 -2.57475,4.08249 h 48.82744 c -0.88715,-1.29336 -1.74581,-2.65734 -2.57475,-4.08249 z m 52.2875,0 c 1.10014,1.45678 2.23572,2.82169 3.4098,4.08249 h 12.63406 c 0.78943,-1.37715 1.59423,-2.73986 2.40658,-4.08249 z m -73.94864,9.52193 c 0.32928,0.6257 0.65296,1.2528 0.9723,1.88081 0.89812,-0.61482 1.76718,-1.24169 2.60567,-1.88081 z m 14.77388,0 c -0.30515,0.32795 -0.61284,0.64763 -0.92397,0.95877 -1.07695,1.07694 -2.25588,2.11784 -3.52579,3.12372 h 66.35198 c -1.2699,-1.00588 -2.44884,-2.04678 -3.52578,-3.12372 -0.31114,-0.31114 -0.61883,-0.63082 -0.92398,-0.95877 z m 68.64644,0 c 0.83849,0.63912 1.70754,1.26599 2.60567,1.88081 0.31934,-0.62801 0.64302,-1.25511 0.9723,-1.88081 z m -81.37908,9.52387 c -2.61108,1.44941 -5.40807,2.80804 -8.337,4.08055 h 99.59174 c -2.92887,-1.27251 -5.72595,-2.63114 -8.337,-4.08055 z m -23.10895,9.52193 c -4.88741,1.5369 -9.88281,2.89161 -14.79321,4.08055 h 158.72012 c -4.91028,-1.18894 -9.90396,-2.54365 -14.79127,-4.08055 z M 283.75109,210.94 c -9.56181,1.45332 -15.94914,2.04124 -15.94914,2.04124 0,0 6.38279,0.5874 15.93754,2.03931 h 214.78276 c 9.5545,-1.45191 15.93561,-2.03931 15.93561,-2.03931 0,0 -6.38758,-0.58792 -15.94914,-2.04124 z m 28.01102,9.52193 c 4.91298,1.1894 9.90895,2.54475 14.79901,4.08249 h 129.13757 c 4.88996,-1.53774 9.88615,-2.89309 14.79901,-4.08249 z m 29.56902,9.52193 c 2.93055,1.27307 5.72846,2.63234 8.34087,4.08249 h 82.91774 c 2.61238,-1.45015 5.41037,-2.80942 8.34087,-4.08249 z m 16.62182,9.52193 c 1.27084,1.00648 2.45008,2.04802 3.52772,3.12566 0.31052,0.31052 0.61748,0.62956 0.92204,0.95683 h 57.45633 c 0.30455,-0.32727 0.61151,-0.64631 0.92204,-0.95683 1.07763,-1.07764 2.25688,-2.11918 3.52771,-3.12566 z m -9.34989,2.20168 c -0.31934,0.62801 -0.64303,1.25511 -0.9723,1.88081 h 3.57797 c -0.83849,-0.63912 -1.70754,-1.26599 -2.60567,-1.88081 z m 85.05369,0 c -0.89813,0.61482 -1.76718,1.24169 -2.60567,1.88081 h 3.57797 c -0.32928,-0.6257 -0.65296,-1.2528 -0.9723,-1.88081 z m -89.0202,7.32219 c -0.78903,1.37648 -1.59274,2.73855 -2.40464,4.08055 h 18.4485 c -1.09958,-1.45604 -2.23444,-2.8203 -3.40787,-4.08055 z m 22.0806,0 c 0.88676,1.29276 1.74422,2.6561 2.57281,4.08055 h 43.68182 c 0.82859,-1.42445 1.68605,-2.78779 2.57281,-4.08055 z m 58.27012,0 c -1.17344,1.26025 -2.30829,2.62451 -3.40787,4.08055 h 18.45044 c -0.81195,-1.342 -1.61752,-2.70407 -2.40658,-4.08055 z m -86.1555,9.52193 c -0.89892,1.39604 -1.79578,2.75869 -2.683,4.08055 h 13.61602 c 2.26089,-1.38861 4.58593,-2.75981 6.94525,-4.08055 z m 33.35189,0 c 0.64669,1.3262 1.27368,2.68833 1.8808,4.08055 h 34.13282 c 0.60712,-1.39222 1.23411,-2.75435 1.8808,-4.08055 z m 53.36611,0 c 2.35935,1.32074 4.68428,2.69194 6.94525,4.08055 h 13.61795 c -0.88728,-1.32186 -1.78596,-2.68451 -2.68493,-4.08055 z m -93.14907,9.52193 c -1.01676,1.44008 -2.00048,2.80465 -2.93429,4.08055 h 5.94396 c 1.84589,-1.31076 3.82395,-2.68246 5.90336,-4.08055 z m 43.88477,0 c 0.51359,1.34248 1.01027,2.70418 1.49227,4.08055 H 404.484 c 0.482,-1.37637 0.98061,-2.73807 1.4942,-4.08055 z m 64.6606,0 c 2.07952,1.39809 4.05737,2.76979 5.90337,4.08055 h 5.94396 c -0.9339,-1.2759 -1.91551,-2.64047 -2.93235,-4.08055 z m -115.55828,9.52193 c -1.35536,1.76409 -2.4559,3.1526 -3.20297,4.08249 h 0.56057 c 1.18913,-0.95143 2.9823,-2.36346 5.25001,-4.08249 z m 54.19344,0 c 0.42543,1.35405 0.83736,2.71622 1.23518,4.08249 h 20.62892 c 0.39783,-1.36627 0.80975,-2.72844 1.23518,-4.08249 z m 74.68511,0 c 2.26788,1.71903 4.06078,3.13106 5.25001,4.08249 h 0.56057 c -0.74715,-0.92989 -1.84747,-2.3184 -3.20297,-4.08249 z m -71.94026,9.52193 c 0.3606,1.36341 0.70895,2.72556 1.04382,4.08249 h 15.52194 c 0.33487,-1.35693 0.68322,-2.71908 1.04382,-4.08249 z m 2.32733,9.52193 c 0.30986,1.37348 0.60674,2.73575 0.89111,4.08249 h 11.17271 c 0.28436,-1.34674 0.58125,-2.70901 0.89111,-4.08249 z m 1.99098,9.52387 c 0.26812,1.38652 0.52254,2.74848 0.76353,4.08055 h 7.4459 c 0.24099,-1.33207 0.49541,-2.69403 0.76353,-4.08055 z m 1.7049,9.52193 c 0.23306,1.41141 0.44876,2.77422 0.64949,4.08055 h 4.26418 c 0.20073,-1.30633 0.41643,-2.66914 0.64949,-4.08055 z m 1.44395,9.52193 c 0.20566,1.48638 0.38614,2.85269 0.54124,4.08055 h 1.59278 c 0.1551,-1.22786 0.33558,-2.59417 0.54124,-4.08055 z m 1.17719,9.52193 c 0.10902,1.0255 0.16044,1.57926 0.16044,1.57926 0,0 0.0514,-0.55376 0.16044,-1.57926 z"
         transform="translate(-93.708432,20.72675)" /><path
         id="ellipse46"
         style="baseline-shift:baseline;display:inline;overflow:visible;opacity:1;vector-effect:none;fill:#e8d2ff;enable-background:accumulate;stop-color:#000000;stop-opacity:1"
         d="m 370.65079,87.151025 c -5.8525,0.963837 -11.56927,2.333903 -17.12246,4.080552 h 13.34539 c 7.84196,-1.582922 15.95319,-2.412378 24.25715,-2.412378 8.30396,0 16.41524,0.829456 24.25715,2.412378 h 13.34539 c -5.55314,-1.746649 -11.26999,-3.116715 -17.12246,-4.080552 z m -31.32804,9.521931 c -2.77904,1.263782 -5.50483,2.626085 -8.1727,4.082484 h 7.28546 c 3.11082,-1.49102 6.29331,-2.854093 9.54126,-4.082484 z m 94.96223,0 c 3.24791,1.228391 6.43048,2.591464 9.54126,4.082484 h 7.28545 c -2.66783,-1.456399 -5.39369,-2.818702 -8.1727,-4.082484 z m -112.17555,9.521934 c -1.97997,1.30695 -3.92139,2.66849 -5.82218,4.08248 h 5.7004 c 2.07131,-1.42393 4.18667,-2.78564 6.34603,-4.08248 z m 131.8167,0 c 2.15932,1.29684 4.27669,2.65855 6.34796,4.08248 h 5.7004 c -1.90075,-1.41399 -3.84224,-2.77553 -5.82218,-4.08248 z m -144.45075,9.52193 c -1.54657,1.32438 -3.06127,2.68566 -4.54254,4.08248 h 4.90594 c 1.5748,-1.40143 3.18567,-2.76278 4.83056,-4.08248 z m 158.11703,0 c 1.64485,1.3197 3.25385,2.68105 4.82862,4.08248 h 4.90594 c -1.48124,-1.39682 -2.99407,-2.7581 -4.54061,-4.08248 z m -168.09128,9.52193 c -1.25398,1.33382 -2.47815,2.69497 -3.67462,4.08249 h 4.41882 c 1.25597,-1.39014 2.54355,-2.75134 3.86019,-4.08249 z m 178.65509,0 c 1.31661,1.33115 2.60231,2.69235 3.85826,4.08249 h 4.42076 c -1.19645,-1.38752 -2.42261,-2.74867 -3.67656,-4.08249 z m -186.76787,9.52387 c -1.03228,1.33912 -2.03958,2.69956 -3.01934,4.08055 h 4.09215 c 1.02066,-1.38267 2.06947,-2.74314 3.14498,-4.08055 z m 195.26532,0 c 1.07548,1.33741 2.12434,2.69788 3.14498,4.08055 h 4.09215 c -0.97974,-1.38099 -1.98515,-2.74143 -3.01741,-4.08055 z m -201.93802,9.52193 c -0.85299,1.3432 -1.68201,2.70359 -2.48583,4.08055 h 3.85826 c 0.83317,-1.37811 1.69247,-2.73852 2.57668,-4.08055 z m 208.8794,0 c 0.88418,1.34203 1.74353,2.70244 2.57668,4.08055 h 3.85826 c -0.8038,-1.37696 -1.63093,-2.73735 -2.4839,-4.08055 z m -214.36717,9.52193 c -0.70068,1.34682 -1.37776,2.70783 -2.03158,4.08248 h 3.68816 c 0.67532,-1.37548 1.37547,-2.7365 2.09923,-4.08248 z m 220.04824,0 c 0.72374,1.34598 1.42393,2.707 2.09923,4.08248 h 3.68816 c -0.6538,-1.37465 -1.33092,-2.73566 -2.03158,-4.08248 z m -224.51346,9.52193 c -0.56593,1.34913 -1.10876,2.71011 -1.62951,4.08248 h 3.56251 c 0.53652,-1.37298 1.09669,-2.73398 1.67977,-4.08248 z m 229.12365,0 c 0.58307,1.3485 1.14134,2.7095 1.67784,4.08248 h 3.56251 c -0.52073,-1.37237 -1.06359,-2.73335 -1.62951,-4.08248 z m -232.67842,9.52193 c -0.44373,1.35097 -0.86446,2.71193 -1.26418,4.08249 h 3.46972 c 0.41107,-1.37103 0.8446,-2.732 1.30091,-4.08249 z m 236.33758,0 c 0.45629,1.35049 0.88985,2.71146 1.30091,4.08249 h 3.46972 c -0.39971,-1.37056 -0.82047,-2.73152 -1.26418,-4.08249 z m -239.05924,9.52193 c -0.33039,1.35248 -0.63869,2.71343 -0.9259,4.08249 h 3.404 c 0.29496,-1.36942 0.61175,-2.73038 0.95103,-4.08249 z m 241.85822,0 c 0.33927,1.35211 0.65608,2.71307 0.95103,4.08249 h 3.404 c -0.28721,-1.36906 -0.59552,-2.73001 -0.9259,-4.08249 z m -243.80281,9.52387 c -0.22326,1.35311 -0.42631,2.71341 -0.60696,4.08055 h 3.36147 c 0.18533,-1.36742 0.3934,-2.72773 0.62243,-4.08055 z m 245.79959,0 c 0.22902,1.35282 0.4371,2.71313 0.62242,4.08055 h 3.36148 c -0.18064,-1.36714 -0.38371,-2.72744 -0.60696,-4.08055 z m -247.00771,9.52193 c -0.12071,1.35421 -0.22123,2.7145 -0.29962,4.08055 h 3.34022 c 0.0804,-1.36627 0.18168,-2.72657 0.30541,-4.08055 z m 248.24676,0 c 0.12373,1.35398 0.22506,2.71428 0.30541,4.08055 h 3.34022 c -0.0784,-1.36605 -0.17892,-2.72634 -0.29962,-4.08055 z M 264.83674,210.94 c -0.0106,0.67889 -0.0155,1.35983 -0.0155,2.04124 0,0.68129 0.005,1.36055 0.0155,2.03931 h 3.33441 c -0.0108,-0.67871 -0.0174,-1.35798 -0.0174,-2.03931 0,-0.68146 0.007,-1.3624 0.0174,-2.04124 z m 249.25192,0 c 0.0108,0.67884 0.0174,1.35978 0.0174,2.04124 0,0.68133 -0.007,1.3606 -0.0174,2.03931 h 3.33441 c 0.0106,-0.67876 0.0155,-1.35802 0.0155,-2.03931 0,-0.68141 -0.005,-1.36235 -0.0155,-2.04124 z m -249.05476,9.52193 c 0.0784,1.3667 0.17884,2.72764 0.29962,4.08249 h 3.34601 c -0.12381,-1.35463 -0.22503,-2.71557 -0.30541,-4.08249 z m 248.85179,0 c -0.0804,1.36692 -0.18161,2.72786 -0.30541,4.08249 h 3.34601 c 0.12078,-1.35485 0.2212,-2.71579 0.29962,-4.08249 z m -247.95101,9.52193 c 0.18073,1.36779 0.38358,2.72874 0.60696,4.08249 h 3.37694 c -0.22915,-1.35347 -0.43701,-2.71442 -0.62243,-4.08249 z m 247.02897,0 c -0.1854,1.36807 -0.39328,2.72902 -0.62242,4.08249 h 3.37694 c 0.22337,-1.35375 0.42623,-2.7147 0.60696,-4.08249 z m -245.40332,9.52193 c 0.28721,1.36906 0.59551,2.73001 0.9259,4.08249 h 3.42913 c -0.33928,-1.35211 -0.65608,-2.71307 -0.95103,-4.08249 z m 243.73515,0 c -0.29494,1.36942 -0.61176,2.73038 -0.95103,4.08249 h 3.42913 c 0.33038,-1.35248 0.6387,-2.71343 0.9259,-4.08249 z m -241.35177,9.52387 c 0.39955,1.36989 0.82067,2.73022 1.26418,4.08055 h 3.50645 c -0.45609,-1.34985 -0.89002,-2.71019 -1.30091,-4.08055 z m 238.90267,0 c -0.41088,1.37036 -0.84484,2.7307 -1.30091,4.08055 h 3.50645 c 0.4435,-1.35033 0.86464,-2.71066 1.26418,-4.08055 z m -235.71323,9.52193 c 0.52052,1.37171 1.06385,2.73206 1.62951,4.08055 h 3.61277 c -0.58281,-1.34786 -1.14349,-2.70822 -1.67977,-4.08055 z m 232.431,0 c -0.53627,1.37233 -1.09505,2.73269 -1.67784,4.08055 h 3.61084 c 0.56565,-1.34849 1.109,-2.70884 1.62951,-4.08055 z m -228.36785,9.52193 c 0.65353,1.37399 1.33123,2.73436 2.03158,4.08055 h 3.75581 c -0.72341,-1.34535 -1.42421,-2.70572 -2.09923,-4.08055 z m 224.17905,0 c -0.675,1.37483 -1.37391,2.7352 -2.0973,4.08055 h 3.75388 c 0.70032,-1.34619 1.37807,-2.70656 2.03158,-4.08055 z m -219.14553,9.52193 c 0.8042,1.37762 1.63241,2.73866 2.48583,4.08249 h 3.95104 c -0.88465,-1.34266 -1.74505,-2.70372 -2.57861,-4.08249 z m 213.94191,0 c -0.83354,1.37877 -1.69205,2.73983 -2.57668,4.08249 h 3.94911 c 0.85339,-1.34383 1.68358,-2.70487 2.48776,-4.08249 z m -207.80272,9.52193 c 0.98023,1.38166 1.98655,2.74274 3.01934,4.08249 h 4.21973 c -1.07605,-1.33804 -2.12577,-2.69915 -3.14692,-4.08249 z m 201.42964,0 c -1.02112,1.38334 -2.06896,2.74445 -3.14498,4.08249 h 4.21779 c 1.03277,-1.33975 2.03913,-2.70083 3.01934,-4.08249 z m -193.97408,9.52193 c 1.19646,1.38752 2.42259,2.74867 3.67656,4.08249 h 4.60439 c -1.31663,-1.33115 -2.60423,-2.69235 -3.86019,-4.08249 z m 186.18991,0 c -1.25594,1.39014 -2.54166,2.75134 -3.85826,4.08249 h 4.60246 c 1.25394,-1.33382 2.48012,-2.69497 3.67656,-4.08249 z m -177.0797,9.52387 c 1.4806,1.39614 2.99476,2.75678 4.5406,4.08055 h 5.19396 c -1.64412,-1.31909 -3.25453,-2.6798 -4.82862,-4.08055 z m 167.48625,0 c -1.57406,1.40075 -3.18454,2.76146 -4.82862,4.08055 h 5.19395 c 1.54581,-1.32377 3.06003,-2.68441 4.54061,-4.08055 z m -156.13184,9.52193 c 1.89993,1.4133 3.83926,2.7742 5.81831,4.08055 h 6.22618 c -2.15836,-1.29625 -4.27371,-2.65732 -6.34409,-4.08055 z m 143.98296,0 c -2.07034,1.42323 -4.18577,2.7843 -6.34408,4.08055 h 6.22424 c 1.97901,-1.30635 3.92034,-2.66725 5.82025,-4.08055 z m -129.11824,9.52193 c 2.6667,1.45567 5.39108,2.81733 8.16884,4.08055 h 8.65402 c -3.24648,-1.22786 -6.42793,-2.59029 -9.5374,-4.08055 z m 112.66846,0 c -3.10943,1.49026 -6.29096,2.85269 -9.53739,4.08055 h 8.65401 c 2.77773,-1.26322 5.50218,-2.62488 8.16884,-4.08055 z m -90.29598,9.52193 c 5.55656,1.74777 11.27785,3.1185 17.13407,4.08249 h 40.94082 c 5.85619,-0.96399 11.57756,-2.33472 17.13407,-4.08249 h -13.3454 c -7.8425,1.58318 -15.95444,2.41431 -24.25908,2.41431 -8.30463,0 -16.41653,-0.83113 -24.25908,-2.41431 z"
         transform="translate(-93.708432,20.72675)" /></g></g></svg>
