<?xml version="1.0" encoding="UTF-8" standalone="no"?>
<!-- Created with Inkscape (http://www.inkscape.org/) -->

<svg
   width="340.07324"
   height="589.67468"
   viewBox="0 0 340.07324 589.67468"
   version="1.1"
   id="svg1"
   xml:space="preserve"
   xmlns="http://www.w3.org/2000/svg"
   xmlns:svg="http://www.w3.org/2000/svg"><defs
     id="defs1" /><g
     id="layer1"
     transform="translate(700.00049,-1185.9998)"><path
       id="text12-5"
       style="font-size:216.974px;font-family:'FiraMono Nerd Font';-inkscape-font-specification:'FiraMono Nerd Font';text-align:center;text-anchor:middle;fill:none;stroke:#e8d2ff;stroke-width:2.77833"
       d="m -1187.4883,-380.41016 c 0,-10.63172 -8.0281,-19.09375 -19.0937,-19.09375 -10.8487,0 -19.0938,8.46203 -19.0938,19.09375 0,10.8487 8.2451,19.09375 19.0938,19.09375 11.0656,0 19.0937,-8.24505 19.0937,-19.09375 z m -105.4492,-45.03125 h -18.2266 v 61.73829 h 18.2266 z m -18.2266,-52.89843 c -3.9378,-1.37991 -8.5522,-2.09571 -13.8847,-2.09571 -12.9318,0 -27.4689,6.21614 -36.67,17.10547 v 16.52539 c 6.0753,-9.11291 17.575,-19.09375 31.0274,-19.09375 17.1409,0 19.5273,9.33048 19.5273,32.76367 z m -50.5547,52.89843 h -18.2246 v 61.73829 h 18.2246 z m -55.7617,4.45703 c 0,-11.88646 -1.8427,-22.40286 -5.4668,-31.1582 -3.4015,8.22471 -8.3617,15.01189 -14.7968,19.95508 0.3458,3.45625 0.5195,7.18939 0.5195,11.20312 0,30.59333 -9.7652,44.69532 -29.5098,44.69532 -19.7446,0 -29.5078,-14.10216 -29.5078,-44.47852 0,-3.96177 0.1688,-7.65092 0.5078,-11.07031 -6.4234,-4.79196 -11.3617,-11.41963 -14.7539,-19.56836 -3.6352,8.74559 -5.498,19.12198 -5.498,30.63867 0,36.01768 17.1397,59.45117 49.2519,59.45117 31.8952,0 49.2539,-24.51819 49.2539,-59.66797 z m -20.2285,-50.76367 c -7.5597,-5.62099 -17.1904,-8.6875 -28.8086,-8.6875 -11.7561,0 -21.5335,3.28501 -29.207,9.17578 0.802,8.05695 2.537,14.58961 5.2129,19.66211 4.8907,-9.34785 12.9012,-13.86718 23.9941,-13.86718 10.9308,0 18.8031,4.48624 23.6153,13.72656 2.6832,-5.15158 4.412,-11.79732 5.1933,-20.00977 z m -110.8242,47.50782 c 0,-25.67792 -9.7346,-44.11332 -26.4805,-51.97266 h -40.2148 c -3.6431,1.67682 -6.998,3.82419 -10.0371,6.39062 0.9401,7.18577 3.0451,13.05116 6.0156,17.69141 5.5113,-8.98483 14.0682,-13.33398 24.2852,-13.33398 13.0252,0 22.3852,7.08701 26.4296,20.98437 2.1424,-1.16133 4.3082,-2.48306 6.5489,-3.96094 l 8.4629,12.15039 c -3.848,2.98411 -8.1795,5.54265 -12.8086,7.5918 0,0.1122 0.01,0.22519 0.01,0.33789 h -0.7832 c -7.9591,3.4015 -16.7559,5.30664 -25.4707,5.30664 -9.3202,0 -17.5107,-1.85652 -24.4746,-5.30664 h -8.7227 c 0.1099,-1.82135 0.2769,-3.57459 0.4981,-5.25781 -5.7295,-4.61994 -10.2681,-10.63556 -13.5274,-17.80469 -3.9434,8.8085 -6.0644,19.22049 -6.0644,30.65625 0,35.58374 18.877,59.45117 52.291,59.45117 14.1033,0 28.423,-4.99131 39.0547,-13.23632 l -8.4629,-12.15039 c -10.1978,6.72618 -18.8752,10.19726 -30.5918,10.19726 -17.5749,0 -32.3294,-11.49988 -33.1973,-37.9707 h 76.8086 c 0.2169,-2.38672 0.4336,-5.85814 0.4336,-9.76367 z m -131.4863,-1.20118 h -17.4043 c 0.5508,21.39605 2.252,39.0799 2.4336,44.16211 l -53.5938,-131.91992 h -8.2226 c 0.1219,4.33179 0.1953,8.68144 0.1953,12.90039 v 11.8086 l 50.1211,124.78711 h 26.4707 z m -14.9707,-17.57617 c -0.2168,-6.06947 -2.599,-30.11265 -2.6036,-56.98633 v 50.57813 z m -61.6211,17.57617 h -17.5742 v 61.73829 h 17.5742 z"
       transform="rotate(-90)" /><path
       id="text11-2"
       style="font-size:216.974px;font-family:'FiraMono Nerd Font';-inkscape-font-specification:'FiraMono Nerd Font';text-align:center;text-anchor:middle;fill:none;stroke:#e8d2ff;stroke-width:2.77833"
       d="m -1187.4883,-442.14844 c 0,-10.63173 -8.0281,-19.09375 -19.0937,-19.09375 -10.8487,0 -19.0938,8.46202 -19.0938,19.09375 0,10.8487 8.2451,19.09375 19.0938,19.09375 11.0656,0 19.0937,-8.24505 19.0937,-19.09375 z m -105.4492,-45.03125 h -18.2266 v 61.73828 h 18.2266 z m -18.2266,-52.89843 c -3.9378,-1.37992 -8.5522,-2.09571 -13.8847,-2.09571 -12.9318,0 -27.4689,6.21614 -36.67,17.10547 v 16.52539 c 6.0753,-9.1129 17.575,-19.09375 31.0274,-19.09375 17.1409,0 19.5273,9.33047 19.5273,32.76367 z m -50.5547,52.89843 h -18.2246 v 61.73828 h 18.2246 z m -55.7617,4.45703 c 0,-11.88648 -1.8427,-22.40285 -5.4668,-31.1582 -3.4015,8.22469 -8.3617,15.01189 -14.7968,19.95508 0.3458,3.45627 0.5195,7.18936 0.5195,11.20312 0,30.59333 -9.7652,44.69727 -29.5098,44.69727 -19.7446,0 -29.5078,-14.10411 -29.5078,-44.48047 0,-3.96181 0.1688,-7.6509 0.5078,-11.07031 -6.4234,-4.79195 -11.3617,-11.41965 -14.7539,-19.56836 -3.6352,8.74559 -5.498,19.12197 -5.498,30.63867 0,36.01769 17.1397,59.45117 49.2519,59.45117 31.8952,0 49.2539,-24.51818 49.2539,-59.66797 z m -20.2285,-50.76367 c -7.5597,-5.62098 -17.1904,-8.6875 -28.8086,-8.6875 -11.7561,0 -21.5335,3.28697 -29.207,9.17774 0.802,8.05692 2.537,14.58961 5.2129,19.66211 4.8907,-9.34783 12.9012,-13.86914 23.9941,-13.86914 10.9307,0 18.8031,4.48822 23.6153,13.72851 2.6832,-5.15156 4.412,-11.79929 5.1933,-20.01172 z m -110.8242,47.50781 c 0,-25.67801 -9.7345,-44.11337 -26.4805,-51.97265 h -40.2148 c -3.6432,1.67683 -6.998,3.82414 -10.0371,6.39062 0.9401,7.18575 3.0451,13.05117 6.0156,17.69141 5.5113,-8.9848 14.0682,-13.33399 24.2852,-13.33398 13.0252,0 22.3852,7.08705 26.4296,20.98437 2.1424,-1.16134 4.3082,-2.48305 6.5489,-3.96094 l 8.4629,12.15039 c -3.848,2.98411 -8.1795,5.54264 -12.8086,7.5918 0,0.11223 0.01,0.22516 0.01,0.33789 h -0.7832 c -7.959,3.40144 -16.7559,5.30664 -25.4707,5.30664 -9.3201,0 -17.5107,-1.85658 -24.4746,-5.30664 h -8.7227 c 0.1099,-1.82138 0.2769,-3.57456 0.4981,-5.25781 -5.7295,-4.61993 -10.2681,-10.63363 -13.5274,-17.80274 -3.9434,8.80852 -6.0644,19.21852 -6.0644,30.6543 0,35.58374 18.877,59.45117 52.291,59.45117 14.1033,0 28.423,-4.99132 39.0547,-13.23633 l -8.4629,-12.15039 c -10.1978,6.7262 -18.8752,10.19727 -30.5918,10.19727 -17.5749,0 -32.3294,-11.49792 -33.1973,-37.96875 h 76.8086 c 0.2169,-2.38671 0.4336,-5.8601 0.4336,-9.76563 z m -131.4863,-1.20117 h -17.4043 c 0.5508,21.3961 2.252,39.0799 2.4336,44.16211 l -53.5938,-131.91992 h -8.2226 c 0.1219,4.33176 0.1953,8.68342 0.1953,12.90234 v 11.80664 l 50.1211,124.78711 h 26.4707 z m -14.9707,-17.57422 c -0.2168,-6.06946 -2.599,-30.11461 -2.6036,-56.98828 v 50.58008 z m -61.6211,17.57422 h -17.5742 v 61.73828 h 17.5742 z"
       transform="rotate(-90)" /><path
       d="m -1706.4902,-487.17987 h 26.4708 v -149.49509 h -17.5749 v 74.85603 c 0,26.90478 2.3867,50.98889 2.6037,57.06417 l -53.5926,-131.9202 h -25.6029 v 149.49509 h 17.5749 v -74.85603 c 0,-22.99924 -2.1698,-49.90402 -2.6037,-56.41324 z m 80.7144,-50.77192 h 76.8088 c 0.2169,-2.38671 0.4339,-5.85829 0.4339,-9.76383 0,-34.71584 -17.7919,-56.19626 -46.6494,-56.19626 -30.3764,0 -49.687,25.16898 -49.687,59.66785 0,35.58373 18.8767,59.45087 52.2907,59.45087 14.1033,0 28.4236,-4.9904 39.0553,-13.23541 l -8.462,-12.15054 c -10.1978,6.72619 -18.8767,10.19777 -30.5933,10.19777 -17.5749,0 -32.3291,-11.49962 -33.197,-37.97045 z m 30.8103,-50.98889 c 17.3579,0 28.2066,12.5845 28.6405,37.10256 h -59.4508 c 1.5188,-25.16899 13.8863,-37.10256 30.8103,-37.10256 z m 128.4487,-14.9712 c -32.1122,0 -49.4701,24.51806 -49.4701,59.66785 0,36.01768 17.1409,59.45087 49.2531,59.45087 31.8952,0 49.2531,-24.51806 49.2531,-59.66785 0,-36.01768 -16.924,-59.45087 -49.0361,-59.45087 z m 0,14.9712 c 19.5276,0 29.2915,14.32029 29.2915,44.47967 0,30.59334 -9.7639,44.69665 -29.5085,44.69665 -19.7446,0 -29.5085,-14.10331 -29.5085,-44.47967 0,-30.37636 9.9808,-44.69665 29.7255,-44.69665 z m 86.5727,101.76081 h 18.2258 v -83.10104 c 6.0753,-9.11291 17.5749,-19.09371 31.0273,-19.09371 17.1409,0 19.5276,9.32988 19.5276,32.76307 v 69.43168 h 18.2258 v -82.88407 c 0,-21.26345 -9.7638,-33.84794 -32.1121,-33.84794 -13.4524,0 -28.6406,6.72619 -37.7535,18.44279 l -1.5188,-16.05608 h -15.6221 z m 154.2686,-16.707 c 0,10.8487 8.245,19.09371 19.0937,19.09371 11.0656,0 19.0937,-8.24501 19.0937,-19.09371 0,-10.63172 -8.0281,-19.09371 -19.0937,-19.09371 -10.8487,0 -19.0937,8.46199 -19.0937,19.09371 z"
       id="text8-1"
       style="font-size:216.974px;font-family:'FiraMono Nerd Font';-inkscape-font-specification:'FiraMono Nerd Font';text-align:center;text-anchor:middle;fill:none;stroke:#e8d2ff;stroke-width:2.77833"
       transform="rotate(-90)"
       aria-label="Neon." /><path
       d="m -1706.4902,-549.01703 h 26.4708 v -149.49508 h -17.5749 v 74.85603 c 0,26.90477 2.3867,50.98889 2.6037,57.06416 l -53.5926,-131.92019 h -25.6029 v 149.49508 h 17.5749 v -74.85603 c 0,-22.99924 -2.1698,-49.90402 -2.6037,-56.41324 z m 80.7144,-50.77191 h 76.8088 c 0.2169,-2.38672 0.4339,-5.8583 0.4339,-9.76383 0,-34.71584 -17.7919,-56.19627 -46.6494,-56.19627 -30.3764,0 -49.687,25.16898 -49.687,59.66785 0,35.58374 18.8767,59.45088 52.2907,59.45088 14.1033,0 28.4236,-4.99041 39.0553,-13.23542 l -8.462,-12.15054 c -10.1978,6.72619 -18.8767,10.19778 -30.5933,10.19778 -17.5749,0 -32.3291,-11.49963 -33.197,-37.97045 z m 30.8103,-50.98889 c 17.3579,0 28.2066,12.58449 28.6405,37.10255 h -59.4508 c 1.5188,-25.16898 13.8863,-37.10255 30.8103,-37.10255 z m 128.4487,-14.97121 c -32.1122,0 -49.4701,24.51806 -49.4701,59.66785 0,36.01768 17.1409,59.45088 49.2531,59.45088 31.8952,0 49.2531,-24.51807 49.2531,-59.66785 0,-36.01769 -16.924,-59.45088 -49.0361,-59.45088 z m 0,14.97121 c 19.5276,0 29.2915,14.32028 29.2915,44.47967 0,30.59333 -9.7639,44.69664 -29.5085,44.69664 -19.7446,0 -29.5085,-14.10331 -29.5085,-44.47967 0,-30.37636 9.9808,-44.69664 29.7255,-44.69664 z m 86.5727,101.7608 h 18.2258 v -83.10104 c 6.0753,-9.11291 17.5749,-19.09371 31.0273,-19.09371 17.1409,0 19.5276,9.32988 19.5276,32.76307 v 69.43168 h 18.2258 v -82.88407 c 0,-21.26345 -9.7638,-33.84794 -32.1121,-33.84794 -13.4524,0 -28.6406,6.72619 -37.7535,18.44279 l -1.5188,-16.05608 h -15.6221 z m 154.2686,-16.707 c 0,10.8487 8.245,19.09372 19.0937,19.09372 11.0656,0 19.0937,-8.24502 19.0937,-19.09372 0,-10.63172 -8.0281,-19.09371 -19.0937,-19.09371 -10.8487,0 -19.0937,8.46199 -19.0937,19.09371 z"
       id="text7-7"
       style="font-size:216.974px;font-family:'FiraMono Nerd Font';-inkscape-font-specification:'FiraMono Nerd Font';text-align:center;text-anchor:middle;fill:#fb9f25;stroke:#fb9f25;stroke-width:2.97678"
       aria-label="Neon."
       transform="rotate(-90)" /></g></svg>
